# Blender 3.6.1
# www.blender.org
mtllib 16_9_camera.mtl
o Plane
v 0.000000 0.000000 0.000000
v 1.777778 -1.000000 1.000000
v 1.777778 1.000000 1.000000
v -1.777778 -1.000000 1.000000
v -1.777778 1.000000 1.000000
v 0.888889 1.155556 1.000000
v 0.000000 2.000000 1.000000
v -0.888889 1.155556 1.000000
v 0.000000 0.000000 0.000000
v -1.777778 -1.000000 1.000000
v -1.777778 1.000000 1.000000
v 1.777778 -1.000000 1.000000
v 1.777778 1.000000 1.000000
v -0.888889 1.155556 1.000000
v 0.000000 2.000000 1.000000
v 0.888889 1.155556 1.000000
vn -0.0000 -0.0000 1.0000
vn -0.0000 -0.0000 -1.0000
vt 1.000000 0.000000
vt 0.000000 1.000000
vt 1.000000 1.000000
s 0
f 6/1/1 7/2/1 8/3/1
f 14/1/2 15/2/2 16/3/2
l 10 12
l 1 2
l 2 3
l 2 4
l 3 5
l 9 10
l 10 11
l 1 3
l 11 13
l 1 4
l 1 5
l 12 13
l 4 5
l 9 11
l 9 12
l 9 13
